<?xml version="1.0" standalone="no"?>
<!DOCTYPE svg PUBLIC "-//W3C//DTD SVG 20010904//EN"
 "http://www.w3.org/TR/2001/REC-SVG-20010904/DTD/svg10.dtd">
<svg version="1.0" xmlns="http://www.w3.org/2000/svg"
 width="500.000000pt" height="500.000000pt" viewBox="0 0 500.000000 500.000000"
 preserveAspectRatio="xMidYMid meet">

<g transform="translate(0.000000,500.000000) scale(0.100000,-0.100000)"
fill="#000000" stroke="none">
<path d="M2475 4801 c-41 -17 20 110 -1101 -2318 -95 -206 -98 -212 -131 -218
-107 -20 -156 -162 -86 -246 71 -84 189 -78 256 12 19 26 25 81 17 139 -3 17
164 387 528 1175 293 632 536 1153 540 1157 5 5 92 -173 194 -394 184 -397
185 -402 172 -435 -23 -54 -9 -110 41 -160 40 -41 45 -43 100 -43 73 0 116 25
144 84 43 89 11 174 -83 216 -37 17 -43 27 -135 227 -393 847 -362 785 -398
799 -18 8 -34 14 -35 13 -2 0 -12 -4 -23 -8z"/>
<path d="M3480 2653 c-59 -22 -110 -94 -110 -155 0 -53 39 -110 94 -138 l48
-25 434 -939 c239 -516 433 -941 430 -943 -2 -2 -76 26 -166 63 l-161 68 -25
48 c-78 154 -308 88 -292 -84 6 -55 30 -94 76 -121 36 -21 100 -25 141 -8 26
11 51 3 306 -105 168 -71 290 -117 309 -116 36 1 76 41 76 77 0 13 -220 499
-488 1080 l-489 1058 14 40 c16 46 10 87 -20 136 -31 52 -122 85 -177 64z"/>
<path d="M1542 844 c-502 -216 -915 -394 -917 -394 -2 0 11 33 29 72 29 64 38
76 81 98 27 14 57 37 68 51 62 85 19 210 -83 240 -55 17 -104 4 -149 -39 -46
-43 -60 -95 -43 -156 10 -38 7 -47 -79 -233 -49 -107 -89 -198 -89 -204 0 -45
67 -97 108 -82 9 4 464 199 1009 435 546 235 997 428 1003 428 6 0 50 -17 99
-37 78 -33 90 -42 95 -66 25 -123 203 -159 276 -57 51 72 32 178 -41 229 -30
21 -42 22 -107 18 -71 -5 -77 -4 -189 44 -63 27 -124 49 -136 48 -12 0 -433
-178 -935 -395z"/>
</g>
</svg>
